{"title":"[Vostfr Proper] Game of Thrones 3x02 vostfr.mp4 [TeKeSTe]","uid":8356879,"size":475699484,"categoryP":"video","categoryS":"tv_shows","magnet":"?xt=urn:btih:99954fa32993ec5ce1ed1ed97204f114b31bb79b&amp;dn=%5BVostfr+Proper%5D+Game+of+Thrones+3x02+vostfr.mp4+%5BTeKeSTe%5D&amp;tr=udp%3A%2F%2Ftracker.openbittorrent.com%3A80&amp;tr=udp%3A%2F%2Fopen.demonii.com%3A1337&amp;tr=udp%3A%2F%2Ftracker.coppersurfer.tk%3A6969&amp;tr=udp%3A%2F%2Fexodus.desync.com%3A6969","seeders":1,"leechers":0,"uploader":"TeKeSTe","files":1,"time":1365520136,"description":"Game of Thrones 3x02 vostfr.mp4\nFormat                                   : MPEG-4\nFormat profile                           : Base Media\nCodec ID                                 : isom\nFile size                                : 454 MiB\nDuration                                 : 57mn 5s\nOverall bit rate mode                    : Variable\nOverall bit rate                         : 1 111 Kbps\nEncoded date                             : UTC 2013-04-09 13:06:55\nTagged date                              : UTC 2013-04-09 13:06:55\n\nVideo\nID                                       : 1\nFormat                                   : AVC\nFormat/Info                              : Advanced Video Codec\nFormat profile                           : &lt;a class=&quot;__cf_email__&quot; href=&quot;/cdn-cgi/l/email-protection&quot; data-cfemail=&quot;d991b0beb19995eaf7e8&quot;&gt;[email&amp;#160;protected]&lt;/a&gt;&lt;script cf-hash='f9e31' type=&quot;text/javascript&quot;&gt;\n/* &lt;![CDATA[ */!function(){try{var t=&quot;currentScript&quot;in document?document.currentScript:function(){for(var t=document.getElementsByTagName(&quot;script&quot;),e=t.length;e--;)if(t[e].getAttribute(&quot;cf-hash&quot;))return t[e]}();if(t&amp;&amp;t.previousSibling){var e,r,n,i,c=t.previousSibling,a=c.getAttribute(&quot;data-cfemail&quot;);if(a){for(e=&quot;&quot;,r=parseInt(a.substr(0,2),16),n=2;a.length-n;n+=2)i=parseInt(a.substr(n,2),16)^r,e+=String.fromCharCode(i);e=document.createTextNode(e),c.parentNode.replaceChild(e,c)}}}catch(u){}}();/* ]]&gt; */&lt;/script&gt;\nFormat settings, CABAC                   : Yes\nFormat settings, ReFrames                : 5 frames\nCodec ID                                 : avc1\nCodec ID/Info                            : Advanced Video Coding\nDuration                                 : 57mn 5s\nBit rate mode                            : Variable\nBit rate                                 : 979 Kbps\nMaximum bit rate                         : 17.5 Mbps\nWidth                                    : 720 pixels\nHeight                                   : 404 pixels\nDisplay aspect ratio                     : 16:9\nFrame rate mode                          : Constant\nFrame rate                               : 23.976 fps\nColor space                              : YUV\nChroma subsampling                       : 4:2:0\nBit depth                                : 8 bits\nScan type                                : Progressive\nBits/(Pixel*Frame)                       : 0.140\nStream size                              : 400 MiB (88%)\nTitle                                    : Game of Thrones 3x02 vostfr\nWriting library                          : x264 core 129 r2245 bc13772\nEncoding settings                        : cabac=1 / ref=5 / deblock=1:0:0 / analyse=0x3:0x113 / me=umh / subme=8 / psy=1 / psy_rd=1.00:0.00 / mixed_ref=1 / me_range=16 / chroma_me=1 / trellis=1 / 8x8dct=1 / cqm=0 / deadzone=21,11 / fast_pskip=1 / chroma_qp_offset=-2 / threads=12 / lookahead_threads=2 / sliced_threads=0 / nr=0 / decimate=1 / interlaced=0 / bluray_compat=0 / constrained_intra=0 / bframes=3 / b_pyramid=2 / b_adapt=2 / b_bias=0 / direct=3 / weightb=1 / open_gop=0 / weightp=2 / keyint=240 / keyint_min=24 / scenecut=40 / intra_refresh=0 / rc_lookahead=50 / rc=crf / mbtree=1 / crf=19.0 / qcomp=0.60 / qpmin=0 / qpmax=69 / qpstep=4 / vbv_maxrate=17500 / vbv_bufsize=17500 / crf_max=0.0 / nal_hrd=vbr / ip_ratio=1.40 / aq=1:1.00\nEncoded date                             : UTC 2013-04-09 13:06:55\nTagged date                              : UTC 2013-04-09 13:07:04\nMatrix coefficients                      : BT.709\n\nAudio\nID                                       : 2\nFormat                                   : AAC\nFormat/Info                              : Advanced Audio Codec\nFormat profile                           : LC\nCodec ID                                 : 40\nDuration                                 : 57mn 5s\nBit rate mode                            : Variable\nBit rate                                 : 128 Kbps\nMaximum bit rate                         : 133 Kbps\nChannel(s)                               : 2 channels\nChannel positions                        : Front: L R\nSampling rate                            : 48.0 KHz\nCompression mode                         : Lossy\nStream size                              : 52.3 MiB (12%)\nEncoded date                             : UTC 2013-04-09 13:07:02\nTagged date                              : UTC 2013-04-09 13:07:04\n\n","torrent":{"xt":"urn:btih:99954fa32993ec5ce1ed1ed97204f114b31bb79b","amp;dn":"%5BVostfr+Proper%5D+Game+of+Thrones+3x02+vostfr.mp4+%5BTeKeSTe%5D","amp;tr":["udp%3A%2F%2Ftracker.openbittorrent.com%3A80","udp%3A%2F%2Fopen.demonii.com%3A1337","udp%3A%2F%2Ftracker.coppersurfer.tk%3A6969","udp%3A%2F%2Fexodus.desync.com%3A6969"],"infoHash":"99954fa32993ec5ce1ed1ed97204f114b31bb79b","infoHashBuffer":{"type":"Buffer","data":[153,149,79,163,41,147,236,92,225,237,30,217,114,4,241,20,179,27,183,155]},"announce":[],"urlList":[]}}